<svg width="81" height="81" viewBox="0 0 81 81" fill="none" xmlns="http://www.w3.org/2000/svg">
<circle cx="40.5" cy="40.5" r="40.5" fill="#E6F1FD"/>
<path d="M46.9045 54.3462V56.0769C46.9045 57.9887 46.2306 59.6205 44.8826 60.9723C43.5347 62.3241 41.9076 63 40.0013 63C38.095 63 36.4679 62.3241 35.12 60.9723C33.772 59.6205 33.0981 57.9887 33.0981 56.0769V54.3462M58.5192 50.823C55.7493 47.4231 53.7937 45.6923 53.7937 36.3191C53.7937 27.7356 49.4231 24.6775 45.8259 23.1923C45.3481 22.9954 44.8983 22.5433 44.7527 22.0511C44.1217 19.8974 42.3527 18 40.0013 18C37.6499 18 35.8798 19.8984 35.2553 22.0532C35.1097 22.5508 34.6599 22.9954 34.1821 23.1923C30.5805 24.6797 26.2142 27.7269 26.2142 36.3191C26.2088 45.6923 24.2533 47.4231 21.4834 50.823C20.3357 52.2314 21.341 54.3462 23.3483 54.3462H56.6651C58.6616 54.3462 59.6604 52.2249 58.5192 50.823Z" stroke="#B0D4F7" stroke-width="4" stroke-linecap="round" stroke-linejoin="round"/>
<circle cx="52.5" cy="27.5" r="7.5" fill="#B0D4F7" stroke="#B0D4F7"/>
<mask id="path-4-outside-1_5777_15459" maskUnits="userSpaceOnUse" x="47.5" y="20.5" width="10" height="14" fill="black">
<rect fill="white" x="47.5" y="20.5" width="10" height="14"/>
<path d="M52.4986 32.71C51.7846 32.71 51.1546 32.5583 50.6086 32.255C50.0626 31.947 49.6356 31.52 49.3276 30.974C49.0242 30.428 48.8726 29.798 48.8726 29.084V25.836C48.8726 25.122 49.0242 24.492 49.3276 23.946C49.6356 23.4 50.0626 22.9753 50.6086 22.672C51.1546 22.364 51.7846 22.21 52.4986 22.21C53.2126 22.21 53.8402 22.364 54.3816 22.672C54.9276 22.9753 55.3546 23.4 55.6626 23.946C55.9706 24.492 56.1246 25.122 56.1246 25.836V29.084C56.1246 29.798 55.9706 30.428 55.6626 30.974C55.3546 31.52 54.9276 31.947 54.3816 32.255C53.8402 32.5583 53.2126 32.71 52.4986 32.71ZM52.4986 31.107C52.8532 31.107 53.1752 31.023 53.4646 30.855C53.7539 30.6823 53.9826 30.4537 54.1506 30.169C54.3186 29.8797 54.4026 29.5577 54.4026 29.203V25.71C54.4026 25.3507 54.3186 25.0287 54.1506 24.744C53.9826 24.4547 53.7539 24.226 53.4646 24.058C53.1752 23.8853 52.8532 23.799 52.4986 23.799C52.1439 23.799 51.8219 23.8853 51.5326 24.058C51.2432 24.226 51.0146 24.4547 50.8466 24.744C50.6786 25.0287 50.5946 25.3507 50.5946 25.71V29.203C50.5946 29.5577 50.6786 29.8797 50.8466 30.169C51.0146 30.4537 51.2432 30.6823 51.5326 30.855C51.8219 31.023 52.1439 31.107 52.4986 31.107Z"/>
</mask>
<path d="M52.4986 32.71C51.7846 32.71 51.1546 32.5583 50.6086 32.255C50.0626 31.947 49.6356 31.52 49.3276 30.974C49.0242 30.428 48.8726 29.798 48.8726 29.084V25.836C48.8726 25.122 49.0242 24.492 49.3276 23.946C49.6356 23.4 50.0626 22.9753 50.6086 22.672C51.1546 22.364 51.7846 22.21 52.4986 22.21C53.2126 22.21 53.8402 22.364 54.3816 22.672C54.9276 22.9753 55.3546 23.4 55.6626 23.946C55.9706 24.492 56.1246 25.122 56.1246 25.836V29.084C56.1246 29.798 55.9706 30.428 55.6626 30.974C55.3546 31.52 54.9276 31.947 54.3816 32.255C53.8402 32.5583 53.2126 32.71 52.4986 32.71ZM52.4986 31.107C52.8532 31.107 53.1752 31.023 53.4646 30.855C53.7539 30.6823 53.9826 30.4537 54.1506 30.169C54.3186 29.8797 54.4026 29.5577 54.4026 29.203V25.71C54.4026 25.3507 54.3186 25.0287 54.1506 24.744C53.9826 24.4547 53.7539 24.226 53.4646 24.058C53.1752 23.8853 52.8532 23.799 52.4986 23.799C52.1439 23.799 51.8219 23.8853 51.5326 24.058C51.2432 24.226 51.0146 24.4547 50.8466 24.744C50.6786 25.0287 50.5946 25.3507 50.5946 25.71V29.203C50.5946 29.5577 50.6786 29.8797 50.8466 30.169C51.0146 30.4537 51.2432 30.6823 51.5326 30.855C51.8219 31.023 52.1439 31.107 52.4986 31.107Z" fill="white"/>
<path d="M50.6086 32.255L50.1172 33.126L50.1229 33.1292L50.6086 32.255ZM49.3276 30.974L48.4534 31.4597L48.4566 31.4653L49.3276 30.974ZM49.3276 23.946L48.4566 23.4547L48.4534 23.4604L49.3276 23.946ZM50.6086 22.672L51.0942 23.5462L51.0999 23.543L50.6086 22.672ZM54.3816 22.672L53.887 23.5412L53.8959 23.5462L54.3816 22.672ZM55.6626 23.946L54.7916 24.4373V24.4373L55.6626 23.946ZM55.6626 30.974L54.7916 30.4827L55.6626 30.974ZM54.3816 32.255L54.8704 33.1274L54.8729 33.126L54.3816 32.255ZM53.4646 30.855L53.9667 31.7199L53.977 31.7137L53.4646 30.855ZM54.1506 30.169L55.0118 30.6773L55.0154 30.6711L54.1506 30.169ZM54.1506 24.744L53.2858 25.2461L53.2894 25.2523L54.1506 24.744ZM53.4646 24.058L52.9521 24.9168L52.9624 24.9228L53.4646 24.058ZM51.5326 24.058L52.0347 24.9229L52.045 24.9167L51.5326 24.058ZM50.8466 24.744L51.7078 25.2523L51.7114 25.2461L50.8466 24.744ZM50.8466 30.169L49.9818 30.6711L49.9854 30.6773L50.8466 30.169ZM51.5326 30.855L51.0201 31.7138L51.0304 31.7198L51.5326 30.855ZM52.4986 32.71V31.71C51.9299 31.71 51.4715 31.5905 51.0942 31.3808L50.6086 32.255L50.1229 33.1292C50.8376 33.5262 51.6393 33.71 52.4986 33.71V32.71ZM50.6086 32.255L51.0999 31.384C50.7127 31.1656 50.417 30.8699 50.1986 30.4827L49.3276 30.974L48.4566 31.4653C48.8542 32.1701 49.4125 32.7284 50.1173 33.126L50.6086 32.255ZM49.3276 30.974L50.2017 30.4884C49.9921 30.1111 49.8726 29.6527 49.8726 29.084H48.8726H47.8726C47.8726 29.9433 48.0564 30.7449 48.4534 31.4596L49.3276 30.974ZM48.8726 29.084H49.8726V25.836H48.8726H47.8726V29.084H48.8726ZM48.8726 25.836H49.8726C49.8726 25.2673 49.9921 24.8089 50.2017 24.4316L49.3276 23.946L48.4534 23.4604C48.0564 24.1751 47.8726 24.9767 47.8726 25.836H48.8726ZM49.3276 23.946L50.1986 24.4373C50.4162 24.0514 50.7102 23.7595 51.0942 23.5462L50.6086 22.672L50.1229 21.7978C49.415 22.1911 48.8549 22.7486 48.4566 23.4547L49.3276 23.946ZM50.6086 22.672L51.0999 23.543C51.4761 23.3307 51.9324 23.21 52.4986 23.21V22.21V21.21C51.6367 21.21 50.833 21.3973 50.1173 21.801L50.6086 22.672ZM52.4986 22.21V23.21C53.0649 23.21 53.5173 23.3308 53.8871 23.5412L54.3816 22.672L54.8761 21.8028C54.1632 21.3972 53.3602 21.21 52.4986 21.21V22.21ZM54.3816 22.672L53.8959 23.5462C54.28 23.7595 54.5739 24.0514 54.7916 24.4373L55.6626 23.946L56.5336 23.4547C56.1352 22.7486 55.5752 22.1911 54.8672 21.7978L54.3816 22.672ZM55.6626 23.946L54.7916 24.4373C55.0038 24.8136 55.1246 25.2699 55.1246 25.836H56.1246H57.1246C57.1246 24.9741 56.9373 24.1704 56.5336 23.4547L55.6626 23.946ZM56.1246 25.836H55.1246V29.084H56.1246H57.1246V25.836H56.1246ZM56.1246 29.084H55.1246C55.1246 29.6501 55.0038 30.1064 54.7916 30.4827L55.6626 30.974L56.5336 31.4653C56.9373 30.7496 57.1246 29.9459 57.1246 29.084H56.1246ZM55.6626 30.974L54.7916 30.4827C54.5732 30.8699 54.2775 31.1656 53.8903 31.384L54.3816 32.255L54.8729 33.126C55.5777 32.7284 56.136 32.1701 56.5336 31.4653L55.6626 30.974ZM54.3816 32.255L53.8927 31.3826C53.522 31.5904 53.0675 31.71 52.4986 31.71V32.71V33.71C53.3577 33.71 54.1585 33.5263 54.8704 33.1274L54.3816 32.255ZM52.4986 31.107V32.107C53.0186 32.107 53.5156 31.9817 53.9667 31.7198L53.4646 30.855L52.9624 29.9902C52.8349 30.0643 52.6879 30.107 52.4986 30.107V31.107ZM53.4646 30.855L53.977 31.7137C54.4072 31.457 54.757 31.109 55.0118 30.6773L54.1506 30.169L53.2894 29.6607C53.2082 29.7984 53.1006 29.9077 52.9521 29.9963L53.4646 30.855ZM54.1506 30.169L55.0154 30.6711C55.2773 30.22 55.4026 29.723 55.4026 29.203H54.4026H53.4026C53.4026 29.3923 53.3599 29.5393 53.2858 29.6669L54.1506 30.169ZM54.4026 29.203H55.4026V25.71H54.4026H53.4026V29.203H54.4026ZM54.4026 25.71H55.4026C55.4026 25.188 55.2785 24.6877 55.0118 24.2357L54.1506 24.744L53.2894 25.2523C53.3587 25.3697 53.4026 25.5134 53.4026 25.71H54.4026ZM54.1506 24.744L55.0154 24.2419C54.7601 23.8022 54.4064 23.4485 53.9667 23.1932L53.4646 24.058L52.9624 24.9228C53.1014 25.0035 53.2051 25.1072 53.2858 25.2461L54.1506 24.744ZM53.4646 24.058L53.977 23.1993C53.5245 22.9292 53.0238 22.799 52.4986 22.799V23.799V24.799C52.6827 24.799 52.826 24.8415 52.9521 24.9167L53.4646 24.058ZM52.4986 23.799V22.799C51.9734 22.799 51.4727 22.9292 51.0201 23.1993L51.5326 24.058L52.045 24.9167C52.1711 24.8415 52.3144 24.799 52.4986 24.799V23.799ZM51.5326 24.058L51.0304 23.1932C50.5908 23.4485 50.2371 23.8022 49.9818 24.2419L50.8466 24.744L51.7114 25.2461C51.7921 25.1072 51.8957 25.0035 52.0347 24.9228L51.5326 24.058ZM50.8466 24.744L49.9854 24.2357C49.7187 24.6877 49.5946 25.188 49.5946 25.71H50.5946H51.5946C51.5946 25.5134 51.6385 25.3697 51.7078 25.2523L50.8466 24.744ZM50.5946 25.71H49.5946V29.203H50.5946H51.5946V25.71H50.5946ZM50.5946 29.203H49.5946C49.5946 29.723 49.7199 30.22 49.9818 30.6711L50.8466 30.169L51.7114 29.6669C51.6373 29.5393 51.5946 29.3923 51.5946 29.203H50.5946ZM50.8466 30.169L49.9854 30.6773C50.2402 31.109 50.5899 31.457 51.0201 31.7137L51.5326 30.855L52.045 29.9963C51.8966 29.9077 51.789 29.7984 51.7078 29.6607L50.8466 30.169ZM51.5326 30.855L51.0304 31.7198C51.4815 31.9817 51.9785 32.107 52.4986 32.107V31.107V30.107C52.3093 30.107 52.1623 30.0643 52.0347 29.9902L51.5326 30.855Z" fill="#B0D4F7" mask="url(#path-4-outside-1_5777_15459)"/>
</svg>
