<svg width="16" height="16" viewBox="0 0 16 16" fill="none" xmlns="http://www.w3.org/2000/svg">
<path d="M2.66667 7.66667C2.22464 7.66667 1.80072 7.49107 1.48816 7.17851C1.17559 6.86595 1 6.44203 1 6C1 5.55797 1.17559 5.13405 1.48816 4.82149C1.80072 4.50893 2.22464 4.33333 2.66667 4.33333M2.66667 7.66667C3.10869 7.66667 3.53262 7.49107 3.84518 7.17851C4.15774 6.86595 4.33333 6.44203 4.33333 6C4.33333 5.55797 4.15774 5.13405 3.84518 4.82149C3.53262 4.50893 3.10869 4.33333 2.66667 4.33333M2.66667 7.66667V14.3333M2.66667 4.33333V1M7.66667 12.6667C7.22464 12.6667 6.80072 12.4911 6.48816 12.1785C6.17559 11.866 6 11.442 6 11C6 10.558 6.17559 10.134 6.48816 9.82149C6.80072 9.50893 7.22464 9.33333 7.66667 9.33333M7.66667 12.6667C8.10869 12.6667 8.53262 12.4911 8.84518 12.1785C9.15774 11.866 9.33333 11.442 9.33333 11C9.33333 10.558 9.15774 10.134 8.84518 9.82149C8.53262 9.50893 8.10869 9.33333 7.66667 9.33333M7.66667 12.6667V14.3333M7.66667 9.33333V1M12.6667 5.16667C12.2246 5.16667 11.8007 4.99107 11.4882 4.67851C11.1756 4.36595 11 3.94203 11 3.5C11 3.05797 11.1756 2.63405 11.4882 2.32149C11.8007 2.00893 12.2246 1.83333 12.6667 1.83333M12.6667 5.16667C13.1087 5.16667 13.5326 4.99107 13.8452 4.67851C14.1577 4.36595 14.3333 3.94203 14.3333 3.5C14.3333 3.05797 14.1577 2.63405 13.8452 2.32149C13.5326 2.00893 13.1087 1.83333 12.6667 1.83333M12.6667 5.16667V14.3333M12.6667 1.83333V1" stroke="#6F707D" stroke-width="2" stroke-linecap="round" stroke-linejoin="round"/>
</svg>
