<svg width="42" height="42" viewBox="0 0 42 42" fill="none" xmlns="http://www.w3.org/2000/svg">
<rect width="42" height="42" rx="8" fill="#F2E6FF"/>
<path d="M28.5 21.5717L21 28.9997L13.5 21.5717C13.0053 21.0903 12.6156 20.5117 12.3555 19.8723C12.0954 19.2329 11.9706 18.5466 11.9887 17.8566C12.0069 17.1666 12.1678 16.4878 12.4612 15.863C12.7545 15.2382 13.1741 14.6809 13.6935 14.2263C14.2128 13.7716 14.8207 13.4294 15.4788 13.2212C16.1369 13.013 16.831 12.9433 17.5174 13.0165C18.2037 13.0897 18.8675 13.3042 19.4669 13.6466C20.0662 13.9889 20.5882 14.4517 21 15.0057C21.4135 14.4557 21.9361 13.997 22.5351 13.6583C23.1341 13.3196 23.7965 13.1081 24.4809 13.0372C25.1654 12.9663 25.8571 13.0374 26.5128 13.2461C27.1685 13.4548 27.774 13.7966 28.2915 14.2501C28.8091 14.7035 29.2274 15.259 29.5204 15.8816C29.8134 16.5042 29.9747 17.1806 29.9943 17.8684C30.0139 18.5562 29.8913 19.2407 29.6341 19.8789C29.377 20.5172 28.9909 21.0955 28.5 21.5777" stroke="#9735FF" stroke-width="2" stroke-linecap="round" stroke-linejoin="round"/>
</svg>
