<svg width="20" height="20" viewBox="0 0 20 20" fill="none" xmlns="http://www.w3.org/2000/svg">
<path d="M9.75 14.75V14.76M9.75 11.25C9.73159 10.9254 9.81916 10.6036 9.99952 10.333C10.1799 10.0625 10.4433 9.85787 10.75 9.75001C11.1259 9.60627 11.4632 9.37725 11.7356 9.08097C12.0079 8.78469 12.2077 8.42923 12.3193 8.0426C12.4309 7.65597 12.4513 7.24871 12.3787 6.85288C12.3062 6.45705 12.1428 6.08346 11.9013 5.76153C11.6599 5.43959 11.347 5.1781 10.9873 4.99763C10.6276 4.81716 10.2309 4.72265 9.82853 4.72154C9.42611 4.72042 9.02892 4.81273 8.66824 4.9912C8.30756 5.16967 7.99323 5.42942 7.75 5.75001M0.75 9.75C0.75 10.9319 0.982792 12.1022 1.43508 13.1942C1.88738 14.2861 2.55031 15.2782 3.38604 16.114C4.22177 16.9497 5.21392 17.6126 6.30585 18.0649C7.39778 18.5172 8.5681 18.75 9.75 18.75C10.9319 18.75 12.1022 18.5172 13.1942 18.0649C14.2861 17.6126 15.2782 16.9497 16.114 16.114C16.9497 15.2782 17.6126 14.2861 18.0649 13.1942C18.5172 12.1022 18.75 10.9319 18.75 9.75C18.75 8.5681 18.5172 7.39778 18.0649 6.30585C17.6126 5.21392 16.9497 4.22177 16.114 3.38604C15.2782 2.55031 14.2861 1.88738 13.1942 1.43508C12.1022 0.982792 10.9319 0.75 9.75 0.75C8.5681 0.75 7.39778 0.982792 6.30585 1.43508C5.21392 1.88738 4.22177 2.55031 3.38604 3.38604C2.55031 4.22177 1.88738 5.21392 1.43508 6.30585C0.982792 7.39778 0.75 8.5681 0.75 9.75Z" stroke="#9C9DA6" stroke-width="1.5" stroke-linecap="round" stroke-linejoin="round"/>
</svg>
