<svg width="18" height="18" viewBox="0 0 18 18"  fill="none" xmlns="http://www.w3.org/2000/svg">
<path d="M12.5 5.73879C12.3166 4.41896 11.7043 3.19604 10.7575 2.25842C9.81066 1.32079 8.58182 0.720482 7.26025 0.549958C5.93869 0.379433 4.59772 0.648155 3.4439 1.31473C2.29009 1.9813 1.38744 3.00875 0.875 4.23879M0.5 1.23879V4.23879H3.5M0.5 7.23878C0.683419 8.55862 1.2957 9.78154 2.24252 10.7192C3.18934 11.6568 4.41818 12.2571 5.73975 12.4276C7.06131 12.5981 8.40228 12.3294 9.5561 11.6629C10.7099 10.9963 11.6126 9.96883 12.125 8.73878M12.5 11.7388V8.73878H9.5" stroke="#6F707D" stroke-linecap="round" stroke-linejoin="round"/>
</svg>
