<svg width="16" height="17" viewBox="0 0 16 17" fill="none" xmlns="http://www.w3.org/2000/svg">
<path d="M1 4.33333H14.3333M6 7.66667V12.6667M9.33333 7.66667V12.6667M1.83333 4.33333L2.66667 14.3333C2.66667 14.7754 2.84226 15.1993 3.15482 15.5118C3.46738 15.8244 3.89131 16 4.33333 16H11C11.442 16 11.866 15.8244 12.1785 15.5118C12.4911 15.1993 12.6667 14.7754 12.6667 14.3333L13.5 4.33333M5.16667 4.33333V1.83333C5.16667 1.61232 5.25446 1.40036 5.41074 1.24408C5.56702 1.0878 5.77899 1 6 1H9.33333C9.55435 1 9.76631 1.0878 9.92259 1.24408C10.0789 1.40036 10.1667 1.61232 10.1667 1.83333V4.33333" stroke="#28293D" stroke-width="2" stroke-linecap="round" stroke-linejoin="round"/>
</svg>
