<?xml version="1.0" encoding="utf-8" ?>
<svg xmlns="http://www.w3.org/2000/svg" xmlns:xlink="http://www.w3.org/1999/xlink" width="24" height="24" viewBox="0 0 24 24">
	<defs>
		<clipPath id="clipPath8007533837">
			<path d="M0 0L24 0L24 24L0 24L0 0Z" fill-rule="nonzero" transform="matrix(1 0 0 1 0 0)"/>
		</clipPath>
	</defs>
	<g clip-path="url(#clipPath8007533837)">
		<path d="M14.644 5.09331Q15.2231 6.4149 15.2488 7.86887C15.2561 8.28301 15.5978 8.61281 16.012 8.60548C16.4261 8.59816 16.7559 8.25648 16.7486 7.84233Q16.7175 6.08802 16.0179 4.49131Q15.3415 2.94766 14.1351 1.7612Q12.9278 0.573773 11.3718 -0.0765108Q9.76028 -0.75 8 -0.75Q6.22031 -0.75 4.59387 -0.0620773Q3.02348 0.602138 1.81281 1.81281Q0.602139 3.02348 -0.0620766 4.59387Q-0.749999 6.22031 -0.749999 8Q-0.75 9.67992 -0.134851 11.2286Q0.390604 12.5515 1.30625 13.6359L0.765366 16.8899Q0.740904 17.037 0.774622 17.1824Q0.808341 17.3277 0.895105 17.449Q0.98187 17.5704 1.10847 17.6493Q1.23507 17.7282 1.38224 17.7527Q1.59916 17.7888 1.8012 17.702L5.10107 16.2846Q7.48495 17.0164 9.63811 16.613C10.0452 16.5367 10.3134 16.1448 10.2372 15.7377C10.1609 15.3306 9.76902 15.0624 9.36189 15.1386Q7.46613 15.4938 5.29914 14.7733Q5.1684 14.7298 5.03075 14.7356Q4.8931 14.7415 4.76651 14.7958L2.47007 15.7822L2.84431 13.5307Q2.85832 13.4464 2.85301 13.3612Q2.84771 13.2759 2.82337 13.194Q2.79904 13.1121 2.75691 13.0378Q2.71478 12.9635 2.65702 12.9006Q1.75121 11.9136 1.25921 10.6749Q0.75 9.39293 0.750001 8Q0.750001 6.52449 1.31943 5.17819Q1.86968 3.87726 2.87347 2.87347Q3.87726 1.86968 5.17819 1.31943Q6.52448 0.75 8 0.75Q9.45945 0.75 10.7934 1.30749Q12.0823 1.84617 13.0833 2.83066Q14.0836 3.81442 14.644 5.09331Z" fill-rule="evenodd" transform="matrix(1 0 0 1 2.5 3)" fill="rgb(107, 114, 128)"/>
		<path d="M1.125 2.2667C1.7463 2.2667 2.25 1.7593 2.25 1.13335C2.25 0.50745 1.7463 0 1.125 0C0.5037 0 0 0.50745 0 1.13335C0 1.7593 0.5037 2.2667 1.125 2.2667Z" fill-rule="nonzero" transform="matrix(1 0 0 1 6.4375 7.96665)" fill="rgb(107, 114, 128)"/>
		<path d="M1.125 2.2667C1.7463 2.2667 2.25 1.7593 2.25 1.13335C2.25 0.50745 1.7463 0 1.125 0C0.5037 0 0 0.50745 0 1.13335C0 1.7593 0.5037 2.2667 1.125 2.2667Z" fill-rule="nonzero" transform="matrix(1 0 0 1 10.9375 7.96665)" fill="rgb(107, 114, 128)"/>
		<path d="M7.16717 10.937Q8.06541 10.6343 8.82862 10.0663C9.16093 9.81908 9.22987 9.34923 8.9826 9.01693C8.73533 8.68462 8.26548 8.61568 7.93318 8.86295Q6.74106 9.75 5.25 9.75Q4.33398 9.75 3.49862 9.39668Q2.6912 9.05516 2.06802 8.43198Q1.44483 7.8088 1.10332 7.00138Q0.75 6.16602 0.75 5.25Q0.75 4.33398 1.10332 3.49862Q1.44483 2.6912 2.06802 2.06802Q2.6912 1.44483 3.49862 1.10332Q4.33398 0.75 5.25 0.75Q6.16602 0.75 7.00138 1.10332Q7.8088 1.44484 8.43198 2.06802Q9.05516 2.6912 9.39668 3.49862Q9.75 4.33398 9.75 5.25Q9.75 6.26072 9.32285 7.1665C9.14617 7.54114 9.30666 7.98808 9.6813 8.16475C10.0559 8.34143 10.5029 8.18094 10.6796 7.8063Q11.25 6.59667 11.25 5.25Q11.25 4.0298 10.7782 2.9143Q10.3227 1.83742 9.49264 1.00736Q8.66258 0.177298 7.5857 -0.278183Q6.4702 -0.75 5.25 -0.75Q4.0298 -0.75 2.9143 -0.278184Q1.83742 0.177297 1.00736 1.00736Q0.177298 1.83742 -0.278183 2.9143Q-0.75 4.0298 -0.75 5.25Q-0.75 6.4702 -0.278184 7.5857Q0.177298 8.66258 1.00736 9.49264Q1.83742 10.3227 2.9143 10.7782Q4.0298 11.25 5.25 11.25Q6.23832 11.25 7.16717 10.937Z" fill-rule="evenodd" transform="matrix(1 0 0 1 11 10.5)" fill="rgb(107, 114, 128)"/>
		<path d="M0.880367 0.122471C0.812729 -0.286179 1.08918 -0.672295 1.49783 -0.739933C1.90648 -0.807571 2.2926 -0.531121 2.36023 -0.122471L2.85903 2.89113Q2.8711 2.96401 2.86871 3.03784Q2.86632 3.11167 2.84958 3.18361Q2.83283 3.25556 2.80237 3.32285Q2.77191 3.39015 2.72891 3.45021Q2.68591 3.51027 2.63202 3.56079Q2.57812 3.61131 2.51541 3.65034Q2.4527 3.68937 2.38357 3.71542Q2.31445 3.74147 2.24157 3.75353Q2.00516 3.79266 1.78986 3.68747L-0.32924 2.65212C-0.701405 2.47029 -0.855703 2.02117 -0.67387 1.64901C-0.492038 1.27684 -0.0429253 1.12255 0.32924 1.30438L1.14169 1.70133L0.880367 0.122471Z" fill-rule="evenodd" transform="matrix(1 0 0 1 19.3809 17.9864)" fill="rgb(107, 114, 128)"/>
		<path d="M0.84375 1.7C0.37775 1.7 0 1.31945 0 0.849999C0 0.380549 0.37775 0 0.84375 0C1.30975 0 1.6875 0.380549 1.6875 0.849999C1.6875 1.31945 1.30975 1.7 0.84375 1.7Z" fill-rule="nonzero" transform="matrix(1 0 0 1 17 13.7)" fill="rgb(107, 114, 128)"/>
		<path d="M0.84375 1.7C0.37775 1.7 0 1.31945 0 0.849999C0 0.380549 0.37775 0 0.84375 0C1.30975 0 1.6875 0.380549 1.6875 0.849999C1.6875 1.31945 1.30975 1.7 0.84375 1.7Z" fill-rule="nonzero" transform="matrix(1 0 0 1 13.625 13.7)" fill="rgb(107, 114, 128)"/>
	</g>
</svg>
