<?xml version="1.0" encoding="utf-8" ?>
<svg xmlns="http://www.w3.org/2000/svg" xmlns:xlink="http://www.w3.org/1999/xlink" width="20" height="20" viewBox="0 0 20 20">
	<defs>
		<clipPath id="clipPath6173227643">
			<path d="M0 0L20 0L20 20L0 20L0 0Z" fill-rule="nonzero" transform="matrix(1 0 0 1 0 0)"/>
		</clipPath>
	</defs>
	<g clip-path="url(#clipPath6173227643)">
		<path d="M2.00677 1.11922L4.21302 -0.503482Q4.29352 -0.562688 4.38846 -0.593844Q4.48341 -0.625 4.58333 -0.625Q4.68326 -0.625 4.7782 -0.593844Q4.87315 -0.562688 4.95365 -0.503482L7.15989 1.11922Q8.40091 2.032 9.09628 3.40666Q9.79167 4.78133 9.79167 6.32188L9.79167 13.75Q9.79167 13.8116 9.77966 13.8719Q9.76765 13.9323 9.74409 13.9892Q9.72053 14.046 9.68633 14.0972Q9.65213 14.1484 9.60861 14.1919Q9.56508 14.2355 9.5139 14.2697Q9.46271 14.3039 9.40584 14.3274Q9.34897 14.351 9.2886 14.363Q9.22822 14.375 9.16667 14.375L0 14.375Q-0.0615571 14.375 -0.121931 14.363Q-0.182306 14.351 -0.239177 14.3274Q-0.296048 14.3039 -0.347231 14.2697Q-0.398414 14.2355 -0.441942 14.1919Q-0.485469 14.1484 -0.519668 14.0972Q-0.553868 14.046 -0.577425 13.9892Q-0.600982 13.9323 -0.612991 13.8719Q-0.625 13.8116 -0.625 13.75L-0.625 6.32188Q-0.625 4.78133 0.0703837 3.40666Q0.76576 2.032 2.00677 1.11922L2.00677 1.11922ZM2.7474 2.12618Q1.74658 2.8623 1.18579 3.97089Q0.625 5.0795 0.625 6.32188L0.625 13.75L0 13.75L0 13.125L9.16667 13.125L9.16667 13.75L8.54167 13.75L8.54167 6.32188Q8.54167 5.0795 7.98087 3.97089Q7.42008 2.8623 6.41927 2.12619L4.21302 0.503482L4.58333 0L4.95365 0.503482L2.7474 2.12619L2.7474 2.12618Z" fill-rule="nonzero" transform="matrix(1 0 0 1 5.41667 1.66667)" fill="rgb(107, 114, 128)"/>
		<path d="M2.94194 0.441942L0.441942 2.94194L0 2.5L0.625 2.5L0.625 5.83333L0 5.83333L-0.279509 5.27432L2.22049 4.02432L2.5 4.58333L1.875 4.58333L1.875 0L2.5 0L2.94194 0.441942ZM2.05806 -0.441942Q2.14597 -0.529849 2.26082 -0.577425Q2.37568 -0.625 2.5 -0.625Q2.56156 -0.625 2.62193 -0.612991Q2.68231 -0.600982 2.73918 -0.577425Q2.79605 -0.553868 2.84723 -0.519669Q2.89841 -0.485469 2.94194 -0.441942Q2.98547 -0.398414 3.01967 -0.347231Q3.05387 -0.296048 3.07742 -0.239177Q3.10098 -0.182306 3.11299 -0.121931Q3.125 -0.0615571 3.125 0L3.125 4.58333Q3.125 4.67039 3.10121 4.75412Q3.07742 4.83786 3.03166 4.91191Q2.98589 4.98597 2.92163 5.04469Q2.85737 5.10342 2.77951 5.14235L0.279509 6.39235Q0.147542 6.45833 0 6.45833Q-0.0615571 6.45833 -0.121931 6.44632Q-0.182306 6.43431 -0.239177 6.41076Q-0.296048 6.3872 -0.347231 6.353Q-0.398414 6.3188 -0.441942 6.27527Q-0.485469 6.23175 -0.519668 6.18056Q-0.553868 6.12938 -0.577425 6.07251Q-0.600982 6.01564 -0.612991 5.95526Q-0.625 5.89489 -0.625 5.83333L-0.625 2.5Q-0.625 2.37568 -0.577425 2.26082Q-0.529849 2.14597 -0.441942 2.05806L2.05806 -0.441942Z" fill-rule="nonzero" transform="matrix(1 0 0 1 2.91667 7.08333)" fill="rgb(107, 114, 128)"/>
		<path d="M0.441942 -0.441942L2.94194 2.05806Q3.02985 2.14597 3.07742 2.26082Q3.125 2.37568 3.125 2.5L3.125 5.83333Q3.125 5.89489 3.11299 5.95526Q3.10098 6.01564 3.07742 6.07251Q3.05387 6.12938 3.01967 6.18056Q2.98547 6.23175 2.94194 6.27527Q2.89841 6.3188 2.84723 6.353Q2.79605 6.3872 2.73918 6.41076Q2.68231 6.43431 2.62193 6.44632Q2.56156 6.45833 2.5 6.45833Q2.35246 6.45833 2.22049 6.39235L-0.279509 5.14235Q-0.357371 5.10342 -0.421631 5.04469Q-0.485891 4.98597 -0.531657 4.91191Q-0.577423 4.83786 -0.601211 4.75412Q-0.625 4.67039 -0.625 4.58333L-0.625 0Q-0.625 -0.0615571 -0.612991 -0.121931Q-0.600982 -0.182306 -0.577425 -0.239177Q-0.553868 -0.296048 -0.519669 -0.347231Q-0.485469 -0.398414 -0.441942 -0.441942Q-0.398414 -0.485469 -0.347231 -0.519668Q-0.296048 -0.553868 -0.239177 -0.577425Q-0.182306 -0.600982 -0.121931 -0.612991Q-0.0615571 -0.625 0 -0.625Q0.12432 -0.625 0.239177 -0.577425Q0.354034 -0.529849 0.441942 -0.441942ZM-0.441942 0.441942L0 0L0.625 0L0.625 4.58333L0 4.58333L0.279509 4.02432L2.77951 5.27432L2.5 5.83333L1.875 5.83333L1.875 2.5L2.5 2.5L2.05806 2.94194L-0.441942 0.441942Z" fill-rule="nonzero" transform="matrix(1 0 0 1 14.5833 7.08333)" fill="rgb(107, 114, 128)"/>
		<path d="M0 -0.625C-0.345175 -0.625 -0.625 -0.345175 -0.625 0L-0.625 1.25C-0.625 1.59518 -0.345175 1.875 0 1.875C0.345175 1.875 0.625 1.59518 0.625 1.25L0.625 0C0.625 -0.345175 0.345175 -0.625 0 -0.625Z" fill-rule="evenodd" transform="matrix(1 0 0 1 7.5 16.25)" fill="rgb(107, 114, 128)"/>
		<path d="M0 -0.625C-0.345175 -0.625 -0.625 -0.345175 -0.625 0L-0.625 2.08333C-0.625 2.42851 -0.345175 2.70833 0 2.70833C0.345175 2.70833 0.625 2.42851 0.625 2.08333L0.625 0C0.625 -0.345175 0.345175 -0.625 0 -0.625Z" fill-rule="evenodd" transform="matrix(1 0 0 1 10 16.25)" fill="rgb(107, 114, 128)"/>
		<path d="M0 -0.625C-0.345175 -0.625 -0.625 -0.345175 -0.625 0L-0.625 1.25C-0.625 1.59518 -0.345175 1.875 0 1.875C0.345175 1.875 0.625 1.59518 0.625 1.25L0.625 0C0.625 -0.345175 0.345175 -0.625 0 -0.625Z" fill-rule="evenodd" transform="matrix(1 0 0 1 12.5 16.25)" fill="rgb(107, 114, 128)"/>
	</g>
</svg>
