<svg width="17" height="15" viewBox="0 0 17 15" fill="none" xmlns="http://www.w3.org/2000/svg">
<path d="M13.25 4.06539C13.913 4.06539 14.5489 4.32878 15.0178 4.79762C15.4866 5.26647 15.75 5.90235 15.75 6.56539C15.75 7.22843 15.4866 7.86432 15.0178 8.33316C14.5489 8.802 13.913 9.06539 13.25 9.06539M6.58333 4.06539V13.2321C6.58333 13.4531 6.49554 13.665 6.33926 13.8213C6.18298 13.9776 5.97101 14.0654 5.75 14.0654H4.91667C4.69565 14.0654 4.48369 13.9776 4.32741 13.8213C4.17113 13.665 4.08333 13.4531 4.08333 13.2321V9.06539M8.25 4.06539L12.02 0.923719C12.1295 0.832476 12.2628 0.774346 12.4042 0.75614C12.5456 0.737935 12.6893 0.760409 12.8184 0.820928C12.9475 0.881448 13.0566 0.977505 13.1331 1.09784C13.2095 1.21818 13.2501 1.35782 13.25 1.50039V11.6304C13.2501 11.773 13.2095 11.9126 13.1331 12.0329C13.0566 12.1533 12.9475 12.2493 12.8184 12.3098C12.6893 12.3704 12.5456 12.3928 12.4042 12.3746C12.2628 12.3564 12.1295 12.2983 12.02 12.2071L8.25 9.06539H1.58333C1.36232 9.06539 1.15036 8.97759 0.994078 8.82131C0.837797 8.66503 0.75 8.45307 0.75 8.23205V4.89872C0.75 4.67771 0.837797 4.46574 0.994078 4.30946C1.15036 4.15318 1.36232 4.06539 1.58333 4.06539H8.25Z" stroke="#28293D" stroke-width="1.5" stroke-linecap="round" stroke-linejoin="round"/>
</svg>
