<svg width="14" height="14" viewBox="0 0 14 14" fill="none" xmlns="http://www.w3.org/2000/svg">
<path d="M5.25 9.75H9.75M0.75 3.75H3M0.75 6.75H3M0.75 9.75H3M12.75 2.25V11.25C12.75 11.6478 12.592 12.0294 12.3107 12.3107C12.0294 12.592 11.6478 12.75 11.25 12.75H3.75C3.35218 12.75 2.97064 12.592 2.68934 12.3107C2.40804 12.0294 2.25 11.6478 2.25 11.25V2.25C2.25 1.85218 2.40804 1.47064 2.68934 1.18934C2.97064 0.908035 3.35218 0.75 3.75 0.75H11.25C11.6478 0.75 12.0294 0.908035 12.3107 1.18934C12.592 1.47064 12.75 1.85218 12.75 2.25ZM6 6C6 6.39782 6.15804 6.77936 6.43934 7.06066C6.72064 7.34196 7.10218 7.5 7.5 7.5C7.89782 7.5 8.27936 7.34196 8.56066 7.06066C8.84196 6.77936 9 6.39782 9 6C9 5.60218 8.84196 5.22064 8.56066 4.93934C8.27936 4.65804 7.89782 4.5 7.5 4.5C7.10218 4.5 6.72064 4.65804 6.43934 4.93934C6.15804 5.22064 6 5.60218 6 6Z" stroke="#28293D" stroke-width="1.5" stroke-linecap="round" stroke-linejoin="round"/>
</svg>
