<svg width="46" height="46" viewBox="0 0 46 46" fill="none" xmlns="http://www.w3.org/2000/svg">
<path d="M6 0.5H40C43.0376 0.5 45.5 2.96243 45.5 6V40C45.5 43.0376 43.0376 45.5 40 45.5H6C2.96243 45.5 0.5 43.0376 0.5 40V6C0.500001 2.96243 2.96243 0.5 6 0.5Z" fill="white"/>
<path d="M6 0.5H40C43.0376 0.5 45.5 2.96243 45.5 6V40C45.5 43.0376 43.0376 45.5 40 45.5H6C2.96243 45.5 0.5 43.0376 0.5 40V6C0.500001 2.96243 2.96243 0.5 6 0.5Z" stroke="#F3F4F5"/>
<path d="M26.332 19.6673V18.0007C26.332 17.5586 26.1564 17.1347 25.8439 16.8221C25.5313 16.5096 25.1074 16.334 24.6654 16.334H17.9987C17.5567 16.334 17.1327 16.5096 16.8202 16.8221C16.5076 17.1347 16.332 17.5586 16.332 18.0007V24.6673C16.332 25.1093 16.5076 25.5333 16.8202 25.8458C17.1327 26.1584 17.5567 26.334 17.9987 26.334H19.6654M19.6654 21.334C19.6654 20.892 19.841 20.468 20.1535 20.1555C20.4661 19.8429 20.89 19.6673 21.332 19.6673H27.9987C28.4407 19.6673 28.8646 19.8429 29.1772 20.1555C29.4898 20.468 29.6654 20.892 29.6654 21.334V28.0007C29.6654 28.4427 29.4898 28.8666 29.1772 29.1792C28.8646 29.4917 28.4407 29.6673 27.9987 29.6673H21.332C20.89 29.6673 20.4661 29.4917 20.1535 29.1792C19.841 28.8666 19.6654 28.4427 19.6654 28.0007V21.334Z" stroke="#6F707D" stroke-width="1.5" stroke-linecap="round" stroke-linejoin="round"/>
</svg>
