<svg width="17" height="15" viewBox="0 0 17 15" fill="none" xmlns="http://www.w3.org/2000/svg">
<path d="M4.08333 14.0833H12.4167M5.75 10.75V14.0833M10.75 10.75V14.0833M0.75 1.58333C0.75 1.36232 0.837797 1.15036 0.994078 0.994078C1.15036 0.837798 1.36232 0.75 1.58333 0.75H14.9167C15.1377 0.75 15.3496 0.837798 15.5059 0.994078C15.6622 1.15036 15.75 1.36232 15.75 1.58333V9.91667C15.75 10.1377 15.6622 10.3496 15.5059 10.5059C15.3496 10.6622 15.1377 10.75 14.9167 10.75H1.58333C1.36232 10.75 1.15036 10.6622 0.994078 10.5059C0.837797 10.3496 0.75 10.1377 0.75 9.91667V1.58333Z" stroke="#28293D" stroke-width="1.5" stroke-linecap="round" stroke-linejoin="round"/>
</svg>
