<svg width="19" height="19" viewBox="0 0 19 19" fill="none" xmlns="http://www.w3.org/2000/svg">
<path d="M3.75 4.75011H2.75C2.21957 4.75011 1.71086 4.96082 1.33579 5.33589C0.960714 5.71097 0.75 6.21967 0.75 6.75011V15.7501C0.75 16.2805 0.960714 16.7892 1.33579 17.1643C1.71086 17.5394 2.21957 17.7501 2.75 17.7501H11.75C12.2804 17.7501 12.7891 17.5394 13.1642 17.1643C13.5393 16.7892 13.75 16.2805 13.75 15.7501V14.7501M12.75 2.75011L15.75 5.75011M17.135 4.33511C17.5288 3.94126 17.7501 3.40709 17.7501 2.85011C17.7501 2.29312 17.5288 1.75895 17.135 1.36511C16.7412 0.971261 16.207 0.75 15.65 0.75C15.093 0.75 14.5588 0.971261 14.165 1.36511L5.75 9.75011V12.7501H8.75L17.135 4.33511Z" stroke="#9C9DA6" stroke-width="1.5" stroke-linecap="round" stroke-linejoin="round"/>
</svg>

