<svg width="18" height="21" viewBox="0 0 18 21" fill="none" xmlns="http://www.w3.org/2000/svg">
<path d="M9.75 0.75V4.75C9.75 5.01522 9.85536 5.26957 10.0429 5.45711C10.2304 5.64464 10.4848 5.75 10.75 5.75H14.75M9.75 0.75H2.75C2.21957 0.75 1.71086 0.960714 1.33579 1.33579C0.960714 1.71086 0.75 2.21957 0.75 2.75V16.75C0.75 17.2804 0.960714 17.7891 1.33579 18.1642C1.71086 18.5393 2.21957 18.75 2.75 18.75H7.25M9.75 0.75L14.75 5.75M14.75 5.75V10.75M9.75 16.75H16.75M16.75 16.75L13.75 13.75M16.75 16.75L13.75 19.75" stroke="#9C9DA6" stroke-width="1.5" stroke-linecap="round" stroke-linejoin="round"/>
</svg>
