<svg width="16" height="14" viewBox="0 0 16 14" fill="none" xmlns="http://www.w3.org/2000/svg">
<path d="M0.357957 10.1232L5.52838 1.27148C6.18515 1.65814 9.49695 3.49099 10.0318 3.83951L4.8614 12.6917C4.29592 13.4387 -0.358427 11.2568 0.357957 10.1226V10.1232Z" fill="#FBBC04"/>
<path d="M15.2139 10.1229L10.0435 1.27177C9.32069 0.0688474 7.76387 -0.368287 6.48523 0.34219C5.20659 1.05267 4.81725 2.58317 5.54007 3.8398L10.7105 12.692C11.4333 13.8944 12.9901 14.3315 14.2688 13.6211C15.4916 12.9106 15.9368 11.3258 15.2139 10.124V10.1229Z" fill="#4285F4"/>
<path d="M2.59541 13.9631C4.02882 13.9631 5.19083 12.8299 5.19083 11.4321C5.19083 10.0343 4.02882 8.90112 2.59541 8.90112C1.16201 8.90112 0 10.0343 0 11.4321C0 12.8299 1.16201 13.9631 2.59541 13.9631Z" fill="#34A853"/>
</svg>
