<svg width="20" height="14" viewBox="0 0 20 14" fill="none" xmlns="http://www.w3.org/2000/svg">
<path d="M7.75 6.75C7.75 7.28043 7.96071 7.78914 8.33579 8.16421C8.71086 8.53929 9.21957 8.75 9.75 8.75C10.2804 8.75 10.7891 8.53929 11.1642 8.16421C11.5393 7.78914 11.75 7.28043 11.75 6.75C11.75 6.21957 11.5393 5.71086 11.1642 5.33579C10.7891 4.96071 10.2804 4.75 9.75 4.75C9.21957 4.75 8.71086 4.96071 8.33579 5.33579C7.96071 5.71086 7.75 6.21957 7.75 6.75Z" stroke="#9C9DA6" stroke-width="1.5" stroke-linecap="round" stroke-linejoin="round"/>
<path d="M18.75 6.75C16.35 10.75 13.35 12.75 9.75 12.75C6.15 12.75 3.15 10.75 0.75 6.75C3.15 2.75 6.15 0.75 9.75 0.75C13.35 0.75 16.35 2.75 18.75 6.75Z" stroke="#9C9DA6" stroke-width="1.5" stroke-linecap="round" stroke-linejoin="round"/>
</svg>
