<svg width="17" height="17" viewBox="0 0 17 17" fill="none" xmlns="http://www.w3.org/2000/svg">
<path d="M10.75 4.91667H10.7583M0.75 11.5833L4.91667 7.41666C5.69 6.6725 6.64333 6.6725 7.41667 7.41666L11.5833 11.5833M9.91667 9.91666L10.75 9.08333C11.5233 8.33916 12.4767 8.33916 13.25 9.08333L15.75 11.5833M0.75 3.25C0.75 2.58696 1.01339 1.95107 1.48223 1.48223C1.95107 1.01339 2.58696 0.75 3.25 0.75H13.25C13.913 0.75 14.5489 1.01339 15.0178 1.48223C15.4866 1.95107 15.75 2.58696 15.75 3.25V13.25C15.75 13.913 15.4866 14.5489 15.0178 15.0178C14.5489 15.4866 13.913 15.75 13.25 15.75H3.25C2.58696 15.75 1.95107 15.4866 1.48223 15.0178C1.01339 14.5489 0.75 13.913 0.75 13.25V3.25Z" stroke="#6F707D" stroke-width="1.5" stroke-linecap="round" stroke-linejoin="round"/>
</svg>
