<svg width="19" height="9" viewBox="0 0 19 9" fill="none" xmlns="http://www.w3.org/2000/svg">
<g clip-path="url(#clip0_1946_69731)">
<path d="M4.07301 5.93514C4.07301 6.45253 4.189 6.84971 4.3407 7.09001C4.53956 7.40478 4.83613 7.53838 5.1385 7.53838C5.52844 7.53838 5.8852 7.44366 6.57269 6.51303C7.12362 5.76715 7.77249 4.72017 8.20917 4.06379L8.94868 2.95177C9.46237 2.1795 10.057 1.32101 10.7387 0.739092C11.2954 0.264102 11.8957 0.000244141 12.4999 0.000244141C13.5143 0.000244141 14.4806 0.575578 15.2201 1.65462C16.0294 2.83633 16.4223 4.32487 16.4223 5.86091C16.4223 6.77411 16.2384 7.44508 15.9254 7.97518C15.6231 8.48779 15.0338 9.00002 14.0425 9.00002V7.53816C14.8913 7.53816 15.1031 6.77479 15.1031 5.90121C15.1031 4.65632 14.8065 3.27483 14.1532 2.28767C13.6896 1.58748 13.0887 1.15965 12.4277 1.15965C11.7127 1.15965 11.1373 1.68748 10.4907 2.62832C10.147 3.12829 9.79408 3.7375 9.39783 4.42499L8.96161 5.18126C8.08547 6.70203 7.86348 7.04824 7.42535 7.61966C6.65748 8.62038 6.00171 8.99979 5.1385 8.99979C4.11442 8.99979 3.46688 8.56578 3.06581 7.91178C2.73845 7.3789 2.57764 6.67961 2.57764 5.88287L4.07301 5.93514Z" fill="#0081FB"/>
<path d="M3.75684 1.75756C4.44242 0.723296 5.43181 0 6.5666 0C7.22376 0 7.87722 0.190359 8.55932 0.735556C9.30555 1.33149 10.1009 2.31337 11.0932 3.93091L11.449 4.51124C12.3079 5.91163 12.7965 6.63209 13.0826 6.97183C13.4503 7.40811 13.7079 7.5382 14.0426 7.5382C14.8914 7.5382 15.1032 6.77483 15.1032 5.90124L16.4224 5.86072C16.4224 6.77392 16.2385 7.44489 15.9255 7.97499C15.6232 8.48761 15.0339 8.99983 14.0426 8.99983C13.4263 8.99983 12.8803 8.86884 12.2766 8.31138C11.8127 7.88356 11.2699 7.12354 10.8524 6.44031L9.61077 4.41044C8.98782 3.39173 8.41613 2.63217 8.08558 2.28817C7.72974 1.91823 7.27236 1.47157 6.54247 1.47157C5.95177 1.47157 5.45008 1.87726 5.03028 2.49782L3.75684 1.75756Z" fill="url(#paint0_linear_1946_69731)"/>
<path d="M6.54237 1.47157C5.95166 1.47157 5.44997 1.87726 5.03017 2.49782C4.43651 3.3747 4.0733 4.68082 4.0733 5.93513C4.0733 6.45251 4.18929 6.84969 4.34099 7.08999L3.06581 7.91176C2.73845 7.37888 2.57764 6.67959 2.57764 5.88285C2.57764 4.43394 2.98399 2.92378 3.75673 1.75756C4.44231 0.723296 5.43171 0 6.56649 0L6.54237 1.47157Z" fill="url(#paint1_linear_1946_69731)"/>
</g>
<defs>
<linearGradient id="paint0_linear_1946_69731" x1="5.57894" y1="4.26668" x2="15.1106" y2="4.75855" gradientUnits="userSpaceOnUse">
<stop stop-color="#0064E1"/>
<stop offset="0.4" stop-color="#0064E1"/>
<stop offset="0.83" stop-color="#0073EE"/>
<stop offset="1" stop-color="#0082FB"/>
</linearGradient>
<linearGradient id="paint1_linear_1946_69731" x1="4.57203" y1="6.54957" x2="4.57203" y2="3.10988" gradientUnits="userSpaceOnUse">
<stop stop-color="#0082FB"/>
<stop offset="1" stop-color="#0064E0"/>
</linearGradient>
<clipPath id="clip0_1946_69731">
<rect width="19" height="9" fill="white"/>
</clipPath>
</defs>
</svg>
