<svg width="12" height="17" viewBox="0 0 12 17" fill="none" xmlns="http://www.w3.org/2000/svg">
<path d="M4.91667 1.58333H6.58333M5.75 12.4167V12.425M0.75 2.41667C0.75 1.97464 0.925595 1.55072 1.23816 1.23816C1.55072 0.925595 1.97464 0.75 2.41667 0.75H9.08333C9.52536 0.75 9.94928 0.925595 10.2618 1.23816C10.5744 1.55072 10.75 1.97464 10.75 2.41667V14.0833C10.75 14.5254 10.5744 14.9493 10.2618 15.2618C9.94928 15.5744 9.52536 15.75 9.08333 15.75H2.41667C1.97464 15.75 1.55072 15.5744 1.23816 15.2618C0.925595 14.9493 0.75 14.5254 0.75 14.0833V2.41667Z" stroke="#6F707D" stroke-width="1.5" stroke-linecap="round" stroke-linejoin="round"/>
</svg>
