<svg width="18" height="17" viewBox="0 0 18 17" fill="none" xmlns="http://www.w3.org/2000/svg">
<path d="M10.25 2.57843L14.25 6.57843M12.75 14.0784H16.75M4.75 16.0784L15.25 5.57843C15.5126 5.31578 15.721 5.00398 15.8631 4.66082C16.0053 4.31766 16.0784 3.94986 16.0784 3.57843C16.0784 3.20699 16.0053 2.8392 15.8631 2.49604C15.721 2.15287 15.5126 1.84107 15.25 1.57843C14.9874 1.31578 14.6756 1.10744 14.3324 0.965302C13.9892 0.82316 13.6214 0.75 13.25 0.75C12.8786 0.75 12.5108 0.82316 12.1676 0.965302C11.8244 1.10744 11.5126 1.31578 11.25 1.57843L0.75 12.0784V16.0784H4.75Z" stroke="#9C9DA6" stroke-width="1.5" stroke-linecap="round" stroke-linejoin="round"/>
</svg>
