<svg width="20" height="20" viewBox="0 0 20 20" fill="none" xmlns="http://www.w3.org/2000/svg">
<path d="M16.6108 10.8674C16.4535 12.0674 15.9724 13.2019 15.2193 14.1492C14.4662 15.0966 13.4694 15.821 12.3358 16.2449C11.2022 16.6688 9.97466 16.7761 8.78472 16.5554C7.59479 16.3346 6.4874 15.7941 5.5813 14.9918C4.67521 14.1895 4.0046 13.1557 3.6414 12.0013C3.2782 10.8468 3.23611 9.61527 3.51964 8.43872C3.80317 7.26216 4.40162 6.18498 5.25082 5.32269C6.10002 4.46041 7.16793 3.84555 8.34001 3.54406C11.5892 2.71073 14.9525 4.38323 16.1942 7.4999M16.6667 3.33322V7.49988H12.5" stroke="#6F707D" stroke-width="1.5" stroke-linecap="round" stroke-linejoin="round"/>
</svg>
