<svg width="18" height="18" viewBox="0 0 18 18" fill="none" xmlns="http://www.w3.org/2000/svg">
<path d="M6 15.75V15C6 14.6022 6.15804 14.2206 6.43934 13.9393C6.72064 13.658 7.10218 13.5 7.5 13.5H10.5C10.8978 13.5 11.2794 13.658 11.5607 13.9393C11.842 14.2206 12 14.6022 12 15V15.75M12.75 7.5H14.25C14.6478 7.5 15.0294 7.65804 15.3107 7.93934C15.592 8.22064 15.75 8.60218 15.75 9V9.75M2.25 9.75V9C2.25 8.60218 2.40804 8.22064 2.68934 7.93934C2.97064 7.65804 3.35218 7.5 3.75 7.5H5.25M7.5 9.75C7.5 10.1478 7.65804 10.5294 7.93934 10.8107C8.22064 11.092 8.60218 11.25 9 11.25C9.39782 11.25 9.77936 11.092 10.0607 10.8107C10.342 10.5294 10.5 10.1478 10.5 9.75C10.5 9.35218 10.342 8.97064 10.0607 8.68934C9.77936 8.40804 9.39782 8.25 9 8.25C8.60218 8.25 8.22064 8.40804 7.93934 8.68934C7.65804 8.97064 7.5 9.35218 7.5 9.75ZM11.25 3.75C11.25 4.14782 11.408 4.52936 11.6893 4.81066C11.9706 5.09196 12.3522 5.25 12.75 5.25C13.1478 5.25 13.5294 5.09196 13.8107 4.81066C14.092 4.52936 14.25 4.14782 14.25 3.75C14.25 3.35218 14.092 2.97064 13.8107 2.68934C13.5294 2.40804 13.1478 2.25 12.75 2.25C12.3522 2.25 11.9706 2.40804 11.6893 2.68934C11.408 2.97064 11.25 3.35218 11.25 3.75ZM3.75 3.75C3.75 4.14782 3.90804 4.52936 4.18934 4.81066C4.47064 5.09196 4.85218 5.25 5.25 5.25C5.64782 5.25 6.02936 5.09196 6.31066 4.81066C6.59196 4.52936 6.75 4.14782 6.75 3.75C6.75 3.35218 6.59196 2.97064 6.31066 2.68934C6.02936 2.40804 5.64782 2.25 5.25 2.25C4.85218 2.25 4.47064 2.40804 4.18934 2.68934C3.90804 2.97064 3.75 3.35218 3.75 3.75Z" stroke="#6F707D" stroke-width="1.5" stroke-linecap="round" stroke-linejoin="round"/>
</svg>
