<svg width="40" height="40" viewBox="0 0 40 40" fill="none" xmlns="http://www.w3.org/2000/svg">
<rect width="40" height="40" rx="8" fill="#E8F5E9"/>
<path d="M26.5 14.2C26.3 14.1 24.8 14 23.5 13.7C22.5 12.2 21.4 11 20 11C18.6 11 17.5 12.2 16.5 13.7C15.2 14 13.7 14.1 13.5 14.2C13.2 14.3 13 14.6 13 14.9V16.8C13 17 13.1 17.2 13.3 17.3L14 17.6V27.5C14 28.3 14.7 29 15.5 29H24.5C25.3 29 26 28.3 26 27.5V17.6L26.7 17.3C26.9 17.2 27 17 27 16.8V14.9C27 14.6 26.8 14.3 26.5 14.2ZM20 12.5C20.8 12.5 21.6 13.2 22.2 14.4H17.8C18.4 13.2 19.2 12.5 20 12.5ZM21.5 22.5H18.5V19.5H21.5V22.5Z" fill="#95BF47"/>
<path d="M21.5 22.5H18.5V19.5H21.5V22.5Z" fill="white"/>
</svg>
