<svg width="42" height="42" viewBox="0 0 42 42" fill="none" xmlns="http://www.w3.org/2000/svg">
<g clip-path="url(#clip0_1946_68111)">
<path d="M31.2138 0.0644327L11.0648 0.0224343C5.12052 0.0100442 0.291768 4.84495 0.279445 10.8215L0.237673 31.08C0.22535 37.0566 5.03412 41.9116 10.9784 41.924L31.1274 41.966C37.0716 41.9784 41.9004 37.1434 41.9127 31.1669L41.9545 10.9084C41.9668 4.93182 37.158 0.0768228 31.2138 0.0644327Z" fill="#F3F4F5"/>
<foreignObject x="-6.05114" y="-4.05114" width="46.5564" height="46.1016"><div xmlns="http://www.w3.org/1999/xhtml" style="backdrop-filter:blur(6.53px);clip-path:url(#bgblur_1_1946_68111_clip_path);height:100%;width:100%"></div></foreignObject><path data-figma-bg-blur-radius="13.0511" d="M26.7688 11.6682C27.4539 12.9065 27.4539 14.569 27.4539 17.8939C27.4539 21.2189 27.4539 22.8814 26.7688 24.1197C26.32 24.9309 25.6745 25.6046 24.8972 26.073C23.7106 26.7879 22.1175 26.7879 18.9315 26.7879H15.5225C14.5622 26.7879 13.7467 26.7879 13.0434 26.7683L9.56415 28.9236C9.2055 29.1457 8.75656 28.8505 8.79384 28.417L9.02697 25.7061C8.48438 25.2774 8.02748 24.7386 7.68508 24.1197C7 22.8814 7 21.2189 7 17.8939C7 14.569 7 12.9065 7.68508 11.6682C8.13388 10.857 8.77939 10.1833 9.55674 9.71494C10.7433 9 12.3364 9 15.5225 9L18.9314 9C22.1175 9 23.7106 9 24.8972 9.71494C25.6745 10.1833 26.32 10.857 26.7688 11.6682Z" fill="url(#paint0_linear_1946_68111)"/>
<foreignObject x="0.312137" y="0.948611" width="47.4656" height="46.1016"><div xmlns="http://www.w3.org/1999/xhtml" style="backdrop-filter:blur(6.53px);clip-path:url(#bgblur_2_1946_68111_clip_path);height:100%;width:100%"></div></foreignObject><path data-figma-bg-blur-radius="13.0511" d="M14.0788 16.6696C13.3633 17.9087 13.3633 19.5723 13.3633 22.8994C13.3633 26.2265 13.3633 27.89 14.0788 29.1291C14.5476 29.9409 15.2218 30.615 16.0337 31.0836C17.273 31.799 18.9368 31.799 22.2645 31.799H25.825C26.8721 31.799 27.7544 31.799 28.5106 31.7767L32.0425 33.9205C32.417 34.1478 32.8908 33.8525 32.8516 33.4163L32.6093 30.7165C33.1759 30.2876 33.6531 29.7484 34.0107 29.1291C34.7263 27.89 34.7263 26.2265 34.7263 22.8994C34.7263 19.5723 34.7263 17.9087 34.0107 16.6696C33.542 15.8579 32.8678 15.1838 32.0559 14.7152C30.8166 13.9998 29.1527 13.9998 25.825 13.9998L22.2645 13.9998C18.9368 13.9998 17.273 13.9998 16.0337 14.7152C15.2218 15.1838 14.5476 15.8579 14.0788 16.6696Z" fill="#6AE092" fill-opacity="0.6"/>
<foreignObject x="5.51212" y="6.14932" width="37.0646" height="28.4286"><div xmlns="http://www.w3.org/1999/xhtml" style="backdrop-filter:blur(6.65px);clip-path:url(#bgblur_3_1946_68111_clip_path);height:100%;width:100%"></div></foreignObject><rect data-figma-bg-blur-radius="13.3053" x="29.0267" y="19.6993" width="1.32861" height="9.96471" rx="0.664305" transform="rotate(90 29.0267 19.6993)" fill="url(#paint1_linear_1946_68111)" fill-opacity="0.9" stroke="url(#paint2_linear_1946_68111)" stroke-width="0.489516"/>
<foreignObject x="5.51309" y="11.2262" width="34.3371" height="28.4286"><div xmlns="http://www.w3.org/1999/xhtml" style="backdrop-filter:blur(6.65px);clip-path:url(#bgblur_4_1946_68111_clip_path);height:100%;width:100%"></div></foreignObject><rect data-figma-bg-blur-radius="13.3053" x="26.3002" y="24.7763" width="1.32861" height="7.23752" rx="0.664305" transform="rotate(90 26.3002 24.7763)" fill="url(#paint3_linear_1946_68111)" fill-opacity="0.9" stroke="url(#paint4_linear_1946_68111)" stroke-width="0.489516"/>
</g>
<defs>
<clipPath id="bgblur_1_1946_68111_clip_path" transform="translate(6.05114 4.05114)"><path d="M26.7688 11.6682C27.4539 12.9065 27.4539 14.569 27.4539 17.8939C27.4539 21.2189 27.4539 22.8814 26.7688 24.1197C26.32 24.9309 25.6745 25.6046 24.8972 26.073C23.7106 26.7879 22.1175 26.7879 18.9315 26.7879H15.5225C14.5622 26.7879 13.7467 26.7879 13.0434 26.7683L9.56415 28.9236C9.2055 29.1457 8.75656 28.8505 8.79384 28.417L9.02697 25.7061C8.48438 25.2774 8.02748 24.7386 7.68508 24.1197C7 22.8814 7 21.2189 7 17.8939C7 14.569 7 12.9065 7.68508 11.6682C8.13388 10.857 8.77939 10.1833 9.55674 9.71494C10.7433 9 12.3364 9 15.5225 9L18.9314 9C22.1175 9 23.7106 9 24.8972 9.71494C25.6745 10.1833 26.32 10.857 26.7688 11.6682Z"/>
</clipPath><clipPath id="bgblur_2_1946_68111_clip_path" transform="translate(-0.312137 -0.948611)"><path d="M14.0788 16.6696C13.3633 17.9087 13.3633 19.5723 13.3633 22.8994C13.3633 26.2265 13.3633 27.89 14.0788 29.1291C14.5476 29.9409 15.2218 30.615 16.0337 31.0836C17.273 31.799 18.9368 31.799 22.2645 31.799H25.825C26.8721 31.799 27.7544 31.799 28.5106 31.7767L32.0425 33.9205C32.417 34.1478 32.8908 33.8525 32.8516 33.4163L32.6093 30.7165C33.1759 30.2876 33.6531 29.7484 34.0107 29.1291C34.7263 27.89 34.7263 26.2265 34.7263 22.8994C34.7263 19.5723 34.7263 17.9087 34.0107 16.6696C33.542 15.8579 32.8678 15.1838 32.0559 14.7152C30.8166 13.9998 29.1527 13.9998 25.825 13.9998L22.2645 13.9998C18.9368 13.9998 17.273 13.9998 16.0337 14.7152C15.2218 15.1838 14.5476 15.8579 14.0788 16.6696Z"/>
</clipPath><clipPath id="bgblur_3_1946_68111_clip_path" transform="translate(-5.51212 -6.14932)"><rect x="29.0267" y="19.6993" width="1.32861" height="9.96471" rx="0.664305" transform="rotate(90 29.0267 19.6993)"/>
</clipPath><clipPath id="bgblur_4_1946_68111_clip_path" transform="translate(-5.51309 -11.2262)"><rect x="26.3002" y="24.7763" width="1.32861" height="7.23752" rx="0.664305" transform="rotate(90 26.3002 24.7763)"/>
</clipPath><linearGradient id="paint0_linear_1946_68111" x1="2.46612" y1="9.00682" x2="11.3025" y2="39.5533" gradientUnits="userSpaceOnUse">
<stop stop-color="#75EDA1"/>
<stop offset="1" stop-color="#349256"/>
</linearGradient>
<linearGradient id="paint1_linear_1946_68111" x1="32.4526" y1="18.2207" x2="30.2939" y2="28.1963" gradientUnits="userSpaceOnUse">
<stop stop-color="white" stop-opacity="0"/>
<stop offset="0.979167" stop-color="white"/>
</linearGradient>
<linearGradient id="paint2_linear_1946_68111" x1="30.1805" y1="19.4546" x2="30.1805" y2="29.9088" gradientUnits="userSpaceOnUse">
<stop stop-color="white" stop-opacity="0"/>
<stop offset="1" stop-color="white"/>
</linearGradient>
<linearGradient id="paint3_linear_1946_68111" x1="28.954" y1="24.4486" x2="28.0998" y2="30.7196" gradientUnits="userSpaceOnUse">
<stop stop-color="white" stop-opacity="0"/>
<stop offset="0.979167" stop-color="white"/>
</linearGradient>
<linearGradient id="paint4_linear_1946_68111" x1="27.454" y1="24.5315" x2="27.454" y2="32.2585" gradientUnits="userSpaceOnUse">
<stop stop-color="white" stop-opacity="0"/>
<stop offset="1" stop-color="white"/>
</linearGradient>
<clipPath id="clip0_1946_68111">
<rect width="42" height="42" fill="white"/>
</clipPath>
</defs>
</svg>
