<svg width="42" height="42" viewBox="0 0 42 42" fill="none" xmlns="http://www.w3.org/2000/svg">
<g clip-path="url(#clip0_1109_97949)">
<path d="M31.2138 0.0644327L11.0648 0.0224343C5.12052 0.0100442 0.291768 4.84495 0.279445 10.8215L0.237673 31.08C0.22535 37.0566 5.03412 41.9116 10.9784 41.924L31.1274 41.966C37.0716 41.9784 41.9004 37.1434 41.9127 31.1669L41.9545 10.9084C41.9668 4.93182 37.158 0.0768228 31.2138 0.0644327Z" fill="#FFF7E9"/>
<mask id="mask0_1109_97949" style="mask-type:luminance" maskUnits="userSpaceOnUse" x="4" y="4" width="34" height="34">
<path d="M37.8098 4.19019H4.46973V37.7114H37.8098V4.19019Z" fill="white"/>
</mask>
<g mask="url(#mask0_1109_97949)">
<path d="M32.6386 31.5761C32.6386 28.6221 31.4651 25.7891 29.3763 23.7003C27.2875 21.6115 24.4545 20.438 21.5004 20.438C18.5464 20.438 15.7134 21.6115 13.6246 23.7003C11.5358 25.7891 10.3623 28.6221 10.3623 31.5761L21.5004 31.5761H32.6386Z" fill="url(#paint0_linear_1109_97949)"/>
<foreignObject x="1.45492" y="-3.36271" width="40.0911" height="40.0911"><div xmlns="http://www.w3.org/1999/xhtml" style="backdrop-filter:blur(6.53px);clip-path:url(#bgblur_1_1109_97949_clip_path);height:100%;width:100%"></div></foreignObject><circle data-figma-bg-blur-radius="13.0568" cx="21.5003" cy="16.6829" r="6.68288" fill="#F8B77B" fill-opacity="0.6" stroke="url(#paint1_linear_1109_97949)" stroke-width="0.611895"/>
</g>
</g>
<defs>
<clipPath id="bgblur_1_1109_97949_clip_path" transform="translate(-1.45492 3.36271)"><circle cx="21.5003" cy="16.6829" r="6.68288"/>
</clipPath><linearGradient id="paint0_linear_1109_97949" x1="14.4098" y1="25.6203" x2="39.8993" y2="34.7516" gradientUnits="userSpaceOnUse">
<stop stop-color="#FBA47F"/>
<stop offset="1" stop-color="#DF6B00"/>
</linearGradient>
<linearGradient id="paint1_linear_1109_97949" x1="13.8066" y1="11.1631" x2="32.8493" y2="20.9743" gradientUnits="userSpaceOnUse">
<stop stop-color="white"/>
<stop offset="1" stop-color="white" stop-opacity="0"/>
</linearGradient>
<clipPath id="clip0_1109_97949">
<rect width="42" height="42" fill="white"/>
</clipPath>
</defs>
</svg>